<svg height="116" viewBox="0 0 134 116" width="134" xmlns="http://www.w3.org/2000/svg"><g fill="none" fill-rule="evenodd" transform="translate(2)"><path d="m61.2626327 95.7114837-20.1871429-6.5536744 24.5952041-75.6429767 20.1871428 6.555z" fill="#fca326"/><path d="m61.2626327 95.7114837-20.1871429-6.5536744 24.5952041-75.6429767 20.1871428 6.555z" stroke="#333" stroke-linecap="round" stroke-linejoin="round" stroke-width="2.653061"/><path d="m44.200398 113.865719-3.1226531-24.7088376 20.1818367 6.5536744z" fill="#ccc"/><path d="m44.200398 113.865719-3.1226531-24.7088376 20.1818367 6.5536744z" stroke="#333" stroke-linecap="round" stroke-linejoin="round" stroke-width="2.653061"/><path d="m44.7211939 113.719507-2.1781633-10.462814 8.8320408 2.868558z" fill="#333"/><g transform="translate(0 1.191698)"><path d="m85.8578367 18.8774721-20.1871428-6.5536744 3.1345918-8.907907c.952449-2.72937209 4.4637755-4.00988372 7.842449-2.85927907l7.6447959 2.60211628c3.377347 1.14927907 5.3445918 4.29488372 4.3908163 7.02425579z" fill="#e24329"/><path d="m85.8578367 18.8774721-20.1871428-6.5536744 3.1345918-8.907907c.952449-2.72937209 4.4637755-4.00988372 7.842449-2.85927907l7.6447959 2.60211628c3.377347 1.14927907 5.3445918 4.29488372 4.3908163 7.02425579z" stroke="#333" stroke-linecap="round" stroke-linejoin="round" stroke-width="2.653061"/><path d="m72.4850816 25.685393-18.0341836 55.4636512" stroke="#333" stroke-linecap="round" stroke-linejoin="round" stroke-width="2.653061"/><path d="m22.1895408 32.0336023-18.7597959 18.7476977-1.87571429 1.8743721c-2.07204081 2.0692326-2.07204081 5.4269302 0 7.4974884l1.87571429 1.8743721 18.7597959 18.7476976c2.0720408 2.0705582 5.4321429 2.0705582 7.5041837 0 2.0733673-2.0718837 2.0733673-5.4282558 0-7.5001395l-16.8827551-16.8706744 16.8827551-16.872c2.0733673-2.0705582 2.0733673-5.4282558 0-7.498814-2.0720408-2.0705581-5.4321429-2.0705581-7.5041837 0" fill="#fff"/><path d="m22.1895408 32.0336023-18.7597959 18.7476977-1.87571429 1.8743721c-2.07204081 2.0692326-2.07204081 5.4269302 0 7.4974884l1.87571429 1.8743721 18.7597959 18.7476976c2.0720408 2.0705582 5.4321429 2.0705582 7.5041837 0 2.0733673-2.0718837 2.0733673-5.4282558 0-7.5001395l-16.8827551-16.8706744 16.8827551-16.872c2.0733673-2.0705582 2.0733673-5.4282558 0-7.498814-2.0720408-2.0705581-5.4321429-2.0705581-7.5041837 0z" stroke="#333" stroke-linecap="round" stroke-linejoin="round" stroke-width="2.653061"/><path d="m107.810459 80.7747 18.759796-18.7476977 1.875714-1.8743721c2.072041-2.0692325 2.072041-5.4269302 0-7.4974883l-1.875714-1.8743721-18.759796-18.7476977c-2.072041-2.0705581-5.432143-2.0705581-7.504183 0-2.0733678 2.0718837-2.0733678 5.4282558 0 7.5001395l16.882755 16.8706744-16.882755 16.872c-2.0733678 2.0705582-2.0733678 5.4282559 0 7.498814 2.07204 2.0705581 5.432142 2.0705581 7.504183 0" fill="#fff"/><path d="m107.810459 80.7747 18.759796-18.7476977 1.875714-1.8743721c2.072041-2.0692325 2.072041-5.4269302 0-7.4974883l-1.875714-1.8743721-18.759796-18.7476977c-2.072041-2.0705581-5.432143-2.0705581-7.504183 0-2.0733678 2.0718837-2.0733678 5.4282558 0 7.5001395l16.882755 16.8706744-16.882755 16.872c-2.0733678 2.0705582-2.0733678 5.4282559 0 7.498814 2.07204 2.0705581 5.432142 2.0705581 7.504183 0z" stroke="#333" stroke-linecap="round" stroke-linejoin="round" stroke-width="2.653061"/></g></g></svg>